<?xml version="1.0" encoding="UTF-8"?>
<svg xmlns="http://www.w3.org/2000/svg" width="1200" height="800" viewBox="0 0 1200 800" role="img" aria-label="Solaris Sky Suites — Damansara (demo image)">
  <defs>
    <linearGradient id="grad-project-10" x1="0" y1="0" x2="1" y2="1">
      <stop offset="0" stop-color="#0F2A43"/>
      <stop offset="1" stop-color="#1d4e7a"/>
    </linearGradient>
  </defs>
  <rect width="1200" height="800" fill="url(#grad-project-10)"/>
  <circle cx="610" cy="140" r="320" fill="rgba(255,255,255,0.05)"/>
  <circle cx="1090" cy="700" r="240" fill="rgba(255,255,255,0.06)"/>
  <circle cx="980" cy="120" r="160" fill="#5b9bd5" opacity="0.10"/>
  <rect x="320" y="300" width="120" height="360" rx="6" fill="rgba(255,255,255,0.16)"/><rect x="460" y="380" width="90" height="280" rx="6" fill="rgba(255,255,255,0.10)"/><rect x="210" y="420" width="90" height="240" rx="6" fill="rgba(255,255,255,0.10)"/><rect x="334" y="320" width="20" height="24" rx="2" fill="rgba(255,255,255,0.18)"/><rect x="368" y="320" width="20" height="24" rx="2" fill="rgba(255,255,255,0.18)"/><rect x="402" y="320" width="20" height="24" rx="2" fill="rgba(255,255,255,0.18)"/><rect x="334" y="360" width="20" height="24" rx="2" fill="rgba(255,255,255,0.18)"/><rect x="368" y="360" width="20" height="24" rx="2" fill="rgba(255,255,255,0.18)"/><rect x="402" y="360" width="20" height="24" rx="2" fill="rgba(255,255,255,0.18)"/><rect x="334" y="400" width="20" height="24" rx="2" fill="rgba(255,255,255,0.18)"/><rect x="368" y="400" width="20" height="24" rx="2" fill="rgba(255,255,255,0.18)"/><rect x="402" y="400" width="20" height="24" rx="2" fill="rgba(255,255,255,0.18)"/><rect x="334" y="440" width="20" height="24" rx="2" fill="rgba(255,255,255,0.18)"/><rect x="368" y="440" width="20" height="24" rx="2" fill="rgba(255,255,255,0.18)"/><rect x="402" y="440" width="20" height="24" rx="2" fill="rgba(255,255,255,0.18)"/><rect x="334" y="480" width="20" height="24" rx="2" fill="rgba(255,255,255,0.18)"/><rect x="368" y="480" width="20" height="24" rx="2" fill="rgba(255,255,255,0.18)"/><rect x="402" y="480" width="20" height="24" rx="2" fill="rgba(255,255,255,0.18)"/><rect x="334" y="520" width="20" height="24" rx="2" fill="rgba(255,255,255,0.18)"/><rect x="368" y="520" width="20" height="24" rx="2" fill="rgba(255,255,255,0.18)"/><rect x="402" y="520" width="20" height="24" rx="2" fill="rgba(255,255,255,0.18)"/><rect x="334" y="560" width="20" height="24" rx="2" fill="rgba(255,255,255,0.18)"/><rect x="368" y="560" width="20" height="24" rx="2" fill="rgba(255,255,255,0.18)"/><rect x="402" y="560" width="20" height="24" rx="2" fill="rgba(255,255,255,0.18)"/><rect x="334" y="600" width="20" height="24" rx="2" fill="rgba(255,255,255,0.18)"/><rect x="368" y="600" width="20" height="24" rx="2" fill="rgba(255,255,255,0.18)"/><rect x="402" y="600" width="20" height="24" rx="2" fill="rgba(255,255,255,0.18)"/>
  <rect x="0" y="540" width="1200" height="260" fill="rgba(0,0,0,0.18)"/>
  <!-- Category pill, top-left -->
  <rect x="60" y="56" width="187" height="44" rx="22" fill="rgba(255,255,255,0.16)"/>
  <text x="82" y="84" font-family="Inter, system-ui, sans-serif" font-size="22" font-weight="700" letter-spacing="2" fill="#ffffff">PROJECT</text>
  <!-- Index badge, top-right -->
  <circle cx="1120" cy="80" r="34" fill="rgba(255,255,255,0.18)"/>
  <text x="1120" y="90" text-anchor="middle" font-family="Inter, system-ui, sans-serif" font-size="28" font-weight="800" fill="#ffffff">10</text>
  <!-- DEMO IMAGE watermark -->
  <text x="600" y="430" text-anchor="middle" font-family="Inter, system-ui, sans-serif" font-size="120" font-weight="800" letter-spacing="6" fill="rgba(255,255,255,0.08)">DEMO IMAGE</text>
  <!-- Title + area -->
  <text x="80" y="650" font-family="Inter, system-ui, sans-serif" font-size="52" font-weight="800" fill="#ffffff"><tspan x="80" dy="0">Solaris Sky Suites</tspan></text>
  <text x="80" y="720" font-family="Inter, system-ui, sans-serif" font-size="30" font-weight="500" fill="rgba(255,255,255,0.82)">Damansara</text>
  <!-- Brand watermark, bottom-right -->
  <text x="1140" y="760" text-anchor="end" font-family="Inter, system-ui, sans-serif" font-size="22" font-weight="600" fill="rgba(255,255,255,0.45)">Super Ren Group</text>
</svg>
